<svg 
 xmlns="http://www.w3.org/2000/svg"
 xmlns:xlink="http://www.w3.org/1999/xlink"
 width="610px" height="157px">
<defs>
<linearGradient id="PSgrad_0" x1="0%" x2="100%" y1="0%" y2="0%">
  <stop offset="0%" stop-color="rgb(79,172,254)" stop-opacity="1" />
  <stop offset="100%" stop-color="rgb(0,242,254)" stop-opacity="1" />
</linearGradient>

</defs>
<path fill-rule="evenodd"  fill="url(#PSgrad_0)"
 d="M535.132,41.643 L535.132,38.692 L580.116,65.045 L580.116,67.996 L535.132,41.643 ZM580.116,20.821 L580.116,23.948 L558.570,23.948 L558.570,20.821 L580.116,20.821 ZM535.132,90.143 L535.132,63.604 L557.861,63.604 L557.861,90.143 L580.825,107.828 L580.825,63.604 L535.132,36.881 L535.132,10.352 L546.497,1.324 L592.190,1.324 L603.555,10.352 L603.555,28.038 L580.825,28.038 L580.825,19.195 L557.861,19.195 L557.861,28.038 L603.555,54.576 L603.555,143.395 L609.238,152.238 L529.448,90.143 L535.132,90.143 ZM580.825,29.664 L603.555,29.664 L603.555,32.791 L580.825,32.791 L580.825,29.664 ZM522.841,8.025 L522.841,5.421 L522.368,5.793 L522.368,81.891 L511.028,91.007 L465.434,91.007 L454.094,81.891 L454.094,5.793 L453.621,5.421 L453.621,8.025 L448.423,3.862 L451.644,3.862 L448.423,1.324 L482.442,1.324 L479.223,3.862 L482.442,3.862 L477.481,8.025 L477.481,5.236 L476.774,5.793 L476.774,72.962 L499.688,72.962 L499.688,5.793 L498.980,5.236 L498.980,8.025 L494.020,3.862 L497.239,3.862 L494.020,1.324 L528.039,1.324 L524.818,3.862 L528.039,3.862 L522.841,8.025 ZM394.510,56.302 L417.482,56.302 L417.482,59.528 L394.510,59.528 L394.510,56.302 ZM412.182,91.853 L418.238,87.309 L418.238,55.272 L393.754,55.272 L393.754,87.309 L399.811,91.853 L363.460,91.853 L369.521,87.309 L369.521,9.585 L381.637,0.478 L430.355,0.478 L442.472,9.585 L442.472,87.309 L448.532,91.853 L412.182,91.853 ZM418.238,18.682 L393.754,18.682 L393.754,37.068 L418.238,37.068 L418.238,18.682 ZM417.482,23.129 L394.510,23.129 L394.510,19.902 L417.482,19.902 L417.482,23.129 ZM322.335,92.850 L350.352,92.850 L354.646,96.083 L318.296,96.083 L322.335,92.850 ZM300.624,56.189 L323.596,56.189 L323.596,59.421 L300.624,59.421 L300.624,56.189 ZM275.129,8.699 L269.574,4.529 L273.613,4.529 L275.129,5.667 L275.129,8.699 ZM302.140,4.529 L305.925,4.529 L300.624,8.699 L300.624,5.667 L302.140,4.529 ZM323.596,8.699 L318.296,4.529 L322.080,4.529 L323.596,5.667 L323.596,8.699 ZM350.607,4.529 L354.646,4.529 L349.091,8.699 L349.091,5.667 L350.607,4.529 ZM324.352,87.479 L324.352,55.380 L299.868,55.380 L299.868,87.479 L305.925,92.032 L269.574,92.032 L275.634,87.479 L275.634,5.040 L269.574,0.478 L305.925,0.478 L299.868,5.040 L299.868,37.140 L324.352,37.140 L324.352,5.040 L318.296,0.478 L354.646,0.478 L348.586,5.040 L348.586,87.479 L354.646,92.032 L318.296,92.032 L324.352,87.479 ZM191.879,93.643 L259.068,93.643 L259.068,96.929 L188.019,96.929 L191.879,93.643 ZM193.014,8.102 L188.019,3.862 L191.651,3.862 L193.014,5.020 L193.014,8.102 ZM193.468,88.113 L193.468,5.073 L188.019,0.478 L259.068,0.478 L259.068,23.437 L253.622,18.851 L215.260,18.851 L215.260,37.407 L242.726,37.407 L248.172,32.811 L248.172,60.366 L242.726,55.780 L215.260,55.780 L215.260,74.143 L253.622,74.143 L259.068,69.547 L259.068,92.699 L188.019,92.699 L193.468,88.113 ZM215.940,59.661 L215.940,56.375 L242.497,56.375 L248.172,61.208 L248.172,64.300 L242.726,59.661 L215.940,59.661 ZM215.940,22.589 L215.940,19.302 L253.393,19.302 L259.068,24.135 L259.068,27.226 L253.622,22.589 L215.940,22.589 ZM144.694,93.614 L174.235,93.614 L178.757,96.929 L140.171,96.929 L144.694,93.614 ZM172.372,7.686 L150.550,47.442 L150.018,46.264 L172.522,4.887 L172.262,5.074 L149.122,46.589 L172.262,88.113 L178.644,92.699 L140.078,92.699 L146.460,88.113 L136.354,69.548 L125.981,88.113 L132.363,92.699 L94.062,92.699 L100.447,88.113 L123.587,46.589 L101.498,6.960 L122.872,46.264 L122.343,47.442 L100.521,7.686 L94.133,3.016 L97.588,3.016 L94.062,0.478 L132.363,0.478 L128.839,3.016 L132.453,3.016 L128.195,6.323 L126.974,4.359 L125.981,5.074 L136.354,23.437 L146.460,5.074 L145.778,4.583 L144.694,6.323 L140.171,3.016 L143.603,3.016 L140.078,0.478 L178.644,0.478 L175.120,3.016 L178.757,3.016 L172.372,7.686 ZM52.204,114.593 L80.567,93.770 L84.582,93.770 L48.441,120.495 L52.204,114.593 ZM30.871,55.250 L53.711,55.250 L53.711,58.387 L30.871,58.387 L30.871,55.250 ZM54.463,106.989 L54.463,53.734 L30.119,53.734 L30.119,124.871 L36.141,124.871 L-0.000,151.401 L6.025,142.558 L6.025,9.507 L18.072,0.478 L66.510,0.478 L78.557,9.507 L78.557,89.302 L84.582,89.302 L48.441,115.842 L54.463,106.989 ZM54.463,18.350 L30.119,18.350 L30.119,36.038 L54.463,36.038 L54.463,18.350 ZM53.711,22.818 L30.871,22.818 L30.871,19.691 L53.711,19.691 L53.711,22.818 ZM32.378,129.339 L36.141,129.339 L-0.000,155.878 L4.016,150.162 L32.378,129.339 ZM126.866,88.354 L136.446,71.018 L146.027,88.354 L144.962,89.130 L136.446,73.353 L127.930,89.130 L126.866,88.354 ZM128.195,93.614 L132.453,96.929 L94.133,96.929 L98.658,93.614 L128.195,93.614 ZM301.886,92.850 L305.925,96.083 L269.574,96.083 L273.868,92.850 L301.886,92.850 ZM395.772,92.892 L399.811,96.118 L363.460,96.118 L367.754,92.892 L395.772,92.892 ZM444.239,92.892 L448.532,96.118 L412.182,96.118 L416.221,92.892 L444.239,92.892 ZM511.266,92.011 L522.368,83.104 L522.368,86.140 L511.028,95.237 L465.434,95.237 L454.094,86.140 L454.094,83.104 L465.196,92.011 L511.266,92.011 ZM605.450,151.284 L609.238,156.1000 L529.448,94.895 L533.237,94.895 L605.450,151.284 Z"/>
</svg>
